PathFileType	4	(X/Y/Z)	Run_500 03
DataRate	CameraRate	NumFrames	NumMarkers	Units	OrigDataRate	OrigDataStartFrame	OrigNumFrames
100	100	6	45	mm	100	8	137
Frame#	Time	RASI			LPSI			RPSI			RTH1			RTH2			RTH3			LTH1			LTH2			LTH3			RTB1			RTB2			RTB3			RLMAL			RMMAL			LTB1			LTB2			LTB3			RCAL			RTOE			RMT5			LCAL			LTOE			LMT5			LACR			RACR			CLAV			C7			LPSH			RUA1			RUA2			RUA3			RLEL			RMEL			LUA1			LUA2			LUA3			LLEL			LMEL			RFAsuperior			RFAradius			RFAulna			LFAsuperior			LFAradius			LFAulna			LASI			
		X1	Y1	Z1	X2	Y2	Z2	X3	Y3	Z3	X4	Y4	Z4	X5	Y5	Z5	X6	Y6	Z6	X7	Y7	Z7	X8	Y8	Z8	X9	Y9	Z9	X10	Y10	Z10	X11	Y11	Z11	X12	Y12	Z12	X13	Y13	Z13	X14	Y14	Z14	X15	Y15	Z15	X16	Y16	Z16	X17	Y17	Z17	X18	Y18	Z18	X19	Y19	Z19	X20	Y20	Z20	X21	Y21	Z21	X22	Y22	Z22	X23	Y23	Z23	X24	Y24	Z24	X25	Y25	Z25	X26	Y26	Z26	X27	Y27	Z27	X28	Y28	Z28	X29	Y29	Z29	X30	Y30	Z30	X31	Y31	Z31	X32	Y32	Z32	X33	Y33	Z33	X34	Y34	Z34	X35	Y35	Z35	X36	Y36	Z36	X37	Y37	Z37	X38	Y38	Z38	X39	Y39	Z39	X40	Y40	Z40	X41	Y41	Z41	X42	Y42	Z42	X43	Y43	Z43	X44	Y44	Z44	X45	Y45	Z45	

1	0.33	951.422332	1087.931282	-241.139798	787.428566	1117.103669	-404.387213	787.882385	1113.719632	-315.38774	922.362666	825.965067	-181.646281	1019.168402	785.784182	-200.211464	993.121228	672.233832	-218.149285	785.001181	868.247387	-508.656535	818.272621	741.7569	-500.453665	736.391969	666.6462759999999	-480.379931	1124.577557	460.279225	-269.993274	1095.315048	390.834742	-237.573201	1154.176296	279.960698	-292.239969	1141.541706	153.714576	-293.422334	1166.756589	195.277243	-363.881667	605.985904	493.519102	-439.469263	487.949495	563.213996	-437.420653	415.10526	478.978637	-401.813045	1093.830304	144.088009	-366.902996	1314.446547	133.476403	-335.480431	1246.300244	78.824952	-282.733746	280.739829	552.772739	-326.396423	236.426263	336.082709	-365.621864	206.538948	403.935208	-417.794347	916.750184	1593.851042	-497.322663	855.63966	1568.51031	-196.419334	955.325022	1515.611265	-311.545943	839.964116	1595.975514	-352.968657	842.6623049999999	1552.607358	-531.216053	741.538128	1470.924807	-125.955051	666.7793840000001	1444.425885	-180.002296	628.961369	1405.4446	-134.313128	596.880834	1346.470531	-99.64499499999999	599.86101	1319.229895	-185.310164	866.585063	1468.863375	-590.675476	807.205676	1387.647853	-591.69411	844.16309	1345.348152	-643.1177740000001	860.530072	1265.630415	-661.872193	802.3161239999999	1252.017823	-590.259741	619.602007	1269.543933	-84.876407	805.423438	1193.260881	-69.112348	763.379701	1142.570454	-53.520026	920.916998	1234.342742	-589.986472	1015.059525	1331.491211	-475.885007	1040.232999	1267.363486	-482.250723	949.474388	1072.879148	-473.142414	
2	0.34	950.7336340000001	1083.163376	-242.241953	786.435388	1110.115871	-403.611564	787.461416	1108.494562	-314.088067	920.19426	820.332051	-185.732339	1016.515308	781.595497	-201.399815	986.00102	666.117002	-222.188117	788.293503	858.334457	-508.094881	827.1686089999999	733.5547769999999	-503.367933	749.171902	655.673081	-482.799861	1111.347818	448.766041	-273.68118	1079.402652	380.161225	-241.58276	1134.294445	267.228599	-296.659483	1116.886834	141.642979	-298.610421	1143.412044	182.383549	-369.255974	621.528834	489.40209	-443.504299	508.271788	566.986946	-442.397972	430.382893	488.466012	-406.084943	1068.286101	135.356658	-372.120636	1288.170811	112.80314	-343.179026	1216.850866	63.239813	-288.599644	299.637121	570.92866	-330.08587	246.475648	357.364839	-374.631085	222.672878	427.565249	-427.155544	916.891082	1588.20776	-497.710883	858.008483	1560.296832	-195.444891	956.574465	1509.495753	-312.007107	840.908951	1590.354588	-352.556779	842.010623	1547.680607	-530.900622	745.702487	1459.664504	-123.977674	669.8284630000001	1432.856577	-176.464672	634.375825	1391.790232	-130.988713	603.710455	1332.214544	-96.69074999999999	607.099199	1306.002099	-182.838436	864.130303	1465.64507	-591.751655	803.223194	1386.001655	-593.535402	838.917616	1343.323958	-645.687216	852.746537	1263.455157	-665.729198	795.364761	1250.223989	-593.872622	628.616643	1255.9229	-82.81323999999999	816.573709	1184.671698	-69.17278399999999	776.087665	1132.704497	-53.344028	913.037422	1227.282667	-596.120622	1013.876801	1317.210733	-481.855963	1035.403482	1252.036055	-489.997345	948.300603	1066.676077	-473.581159	
3	0.35	949.680357	1077.486892	-242.997096	785.04278	1102.318544	-402.711116	786.003477	1102.208732	-313.002391	918.345202	813.947142	-189.4611	1014.289125	776.53399	-204.857531	979.309905	659.17861	-225.206306	792.780915	847.884945	-508.505642	837.189059	724.919269	-506.692694	763.41158	644.157603	-485.87337	1096.592121	436.036202	-278.023934	1062.087538	368.912587	-245.421807	1109.498111	253.467526	-301.972794	1085.679648	130.189977	-303.309734	1111.372924	168.637597	-375.576323	639.229462	484.704535	-448.551351	530.907465	569.205413	-447.692199	448.76811	495.99051	-411.33905	1034.135983	125.232409	-377.124166	1254.11326	92.65468799999999	-352.926319	1179.863589	53.055566	-292.82559	320.821183	585.965717	-334.419443	262.549392	375.052795	-384.355804	243.046505	446.990424	-436.531212	916.3723649999999	1581.208198	-498.522916	860.8863720000001	1550.962341	-194.294775	958.096121	1502.426155	-312.542163	841.936686	1583.608488	-352.338058	840.6938280000001	1541.165633	-530.411889	750.887319	1447.005373	-121.316641	673.935462	1419.666492	-172.358684	640.906637	1376.894006	-126.875127	611.819445	1316.795078	-92.920553	615.820639	1291.558959	-179.596135	860.71006	1460.973375	-592.775155	798.439201	1383.078938	-595.337554	832.6986460000001	1339.9556	-648.27323	843.736388	1260.28055	-669.787814	787.425918	1247.259856	-597.209669	638.907103	1241.27229	-80.093159	828.906653	1175.311697	-69.331142	790.128475	1122.062812	-53.180946	904.1004	1219.450247	-603.019613	1011.65682	1301.871425	-489.308091	1029.780505	1236.090308	-499.48451	946.723378	1059.71385	-473.85163	
4	0.36	948.5528399999999	1070.885284	-243.487193	783.220084	1094.094985	-401.916142	783.436138	1095.071059	-312.227866	915.867086	806.923189	-191.096152	1011.000043	769.009785	-211.169527	973.549669	650.981348	-227.089879	798.392745	837.02959	-509.783482	848.414927	715.961419	-510.260016	779.175941	632.219214	-489.366576	1079.609783	422.763142	-284.586603	1042.879965	357.604966	-250.852947	1078.791747	239.804726	-309.780896	1046.287875	121.140334	-309.25758	1069.599924	155.939001	-383.895482	659.371292	479.358916	-454.539359	555.8724549999999	569.66283	-453.255331	470.111327	501.298737	-417.406847	990.936949	114.340802	-384.009167	1212.253773	77.44112199999999	-360.969454	1135.485523	49.781705	-295.214573	344.411133	597.7979309999999	-339.784739	283.298184	388.983845	-394.386528	266.50246	462.128001	-445.859631	915.368914	1572.99389	-499.512888	864.348068	1540.803392	-192.932561	960.003793	1494.293881	-313.208879	843.009696	1575.556098	-352.001461	838.81323	1533.350778	-529.653151	757.25021	1433.045339	-118.078571	679.242807	1405.033787	-167.509416	648.703889	1360.817727	-121.911636	621.273998	1300.334853	-88.45379	626.150026	1276.129336	-175.701305	856.305204	1454.90558	-593.561369	792.845269	1378.916654	-596.7296	825.2647020000001	1335.478371	-650.706418	833.42026	1256.265804	-673.9494999999999	778.697507	1243.223956	-600.232363	650.5597739999999	1225.764247	-76.891918	842.490036	1165.429553	-69.719748	805.559629	1110.878496	-53.272712	894.091075	1211.180316	-610.477702	1008.022225	1285.999582	-497.844139	1023.321335	1220.072547	-510.547703	944.769008	1052.01583	-473.991802	
5	0.37	947.228493	1063.363579	-243.721182	780.756311	1085.936031	-401.177381	780.159854	1087.654898	-311.469266	912.3952399999999	800.0022729999999	-190.874471	1005.958603	759.2179630000001	-218.371531	968.323796	641.968266	-228.973291	804.718918	825.760104	-511.367253	860.732601	706.949971	-513.775343	796.508691	620.2653299999999	-492.932016	1060.238602	410.280535	-294.077398	1021.153195	347.439133	-259.033435	1043.232758	227.989783	-320.169344	1000.277265	115.968943	-317.244826	1021.337576	146.157077	-394.047197	682.2290410000001	473.451154	-460.747324	583.000033	568.24202	-459.357172	494.297824	504.172408	-423.982454	941.528138	104.856307	-392.466682	1165.108516	69.130663	-365.57387	1086.558621	51.28361	-297.054118	370.669968	606.283452	-346.593803	307.53634	398.921163	-403.998133	292.613654	472.69841	-455.113622	914.067814	1563.941083	-500.525208	868.335818	1530.310607	-191.368669	962.370803	1485.150897	-314.136662	844.187861	1566.486262	-351.126717	836.475013	1524.784337	-528.634188	764.959077	1417.82732	-114.5993	685.799325	1389.252529	-161.786558	657.720235	1343.720071	-116.256601	632.1854959999999	1282.998809	-83.41296	637.6816679999999	1260.005829	-171.164568	850.941412	1447.686993	-594.030178	786.4376	1373.573806	-597.354872	816.384046	1330.271728	-652.841614	821.812504	1251.731205	-678.020538	769.358444	1238.323002	-602.980549	663.671011	1209.596197	-73.41207300000001	857.424213	1155.325275	-70.41882099999999	822.494471	1099.468597	-53.760277	882.955447	1202.855762	-618.104258	1002.611336	1270.053186	-506.918227	1015.975502	1204.428599	-522.795406	942.380595	1043.611395	-473.789441	
6	0.38	945.084105	1055.171454	-243.343522	777.25444	1078.240656	-400.328144	776.613649	1080.534615	-310.752477	907.676046	793.794403	-190.400491	999.283445	749.049581	-223.683645	962.28768	633.331431	-232.096709	811.269604	814.497577	-512.529751	873.898023	698.6134970000001	-516.850723	815.520179	609.196995	-496.440561	1039.13921	399.892679	-305.113264	996.874944	339.679557	-269.067928	1005.670752	219.525794	-331.183275	951.965897	114.911707	-326.294123	972.567722	140.377578	-404.504521	707.869923	467.46751	-466.105935	611.977071	565.297769	-466.1518	521.114501	504.608207	-430.769511	890.733997	99.40545400000001	-400.512578	1116.431278	66.04033099999999	-368.203161	1036.800732	53.921544	-299.930007	399.172146	611.373191	-355.034815	334.568789	404.512301	-412.51792	321.382729	478.246495	-464.214705	912.5981880000001	1554.723395	-501.577689	872.67488	1520.128157	-189.722275	965.161578	1475.452956	-315.403411	845.609781	1557.32698	-349.5982	833.79231	1516.295731	-527.468544	774.030003	1401.697663	-111.334557	693.515599	1372.862949	-155.419953	667.754092	1326.077659	-110.293949	644.784702	1265.153196	-77.90145099999999	649.678998	1243.484195	-165.923348	844.721712	1439.935183	-594.161652	779.119784	1367.328791	-596.93561	805.935578	1324.855929	-654.4968270000001	809.05804	1247.250934	-681.607631	759.327933	1232.99808	-605.302922	678.439076	1193.108959	-69.80861	873.85515	1145.39085	-71.57943	841.0860280000001	1088.285651	-54.741972	870.694119	1195.005865	-625.444423	995.367225	1254.461799	-516.0537880000001	1007.681006	1189.57913	-535.690031	939.409193	1034.742573	-472.894992	
